<mxfile host="app.diagrams.net" modified="2020-11-09T04:12:46.695Z" agent="5.0 (X11)" etag="tJoiG0tLHxBcndVwyQj6" version="13.9.2" type="github">
  <diagram id="YRdeOWJwseUrHKQ8085G" name="Page-1">
    <mxGraphModel dx="1494" dy="661" grid="1" gridSize="10" guides="1" tooltips="1" connect="1" arrows="1" fold="0" page="1" pageScale="1" pageWidth="850" pageHeight="1100" math="0" shadow="0">
      <root>
        <mxCell id="0" />
        <mxCell id="1" parent="0" />
        <mxCell id="_Gj4sTXJ-j2Qwo7dt4ds-30" value="" style="edgeStyle=orthogonalEdgeStyle;rounded=0;orthogonalLoop=1;jettySize=auto;html=1;" parent="1" source="_Gj4sTXJ-j2Qwo7dt4ds-1" target="_Gj4sTXJ-j2Qwo7dt4ds-2" edge="1">
          <mxGeometry relative="1" as="geometry" />
        </mxCell>
        <mxCell id="_Gj4sTXJ-j2Qwo7dt4ds-1" value="Start" style="ellipse;whiteSpace=wrap;html=1;aspect=fixed;" parent="1" vertex="1">
          <mxGeometry x="20" y="227.5" width="50" height="50" as="geometry" />
        </mxCell>
        <mxCell id="_Gj4sTXJ-j2Qwo7dt4ds-16" value="" style="edgeStyle=orthogonalEdgeStyle;rounded=0;orthogonalLoop=1;jettySize=auto;html=1;" parent="1" source="_Gj4sTXJ-j2Qwo7dt4ds-2" target="_Gj4sTXJ-j2Qwo7dt4ds-3" edge="1">
          <mxGeometry relative="1" as="geometry" />
        </mxCell>
        <mxCell id="_Gj4sTXJ-j2Qwo7dt4ds-2" value="Create RTS" style="shape=parallelogram;perimeter=parallelogramPerimeter;whiteSpace=wrap;html=1;fixedSize=1;" parent="1" vertex="1">
          <mxGeometry x="100" y="230" width="120" height="45" as="geometry" />
        </mxCell>
        <mxCell id="_Gj4sTXJ-j2Qwo7dt4ds-17" value="" style="edgeStyle=orthogonalEdgeStyle;rounded=0;orthogonalLoop=1;jettySize=auto;html=1;" parent="1" source="_Gj4sTXJ-j2Qwo7dt4ds-3" target="_Gj4sTXJ-j2Qwo7dt4ds-4" edge="1">
          <mxGeometry relative="1" as="geometry" />
        </mxCell>
        <mxCell id="_Gj4sTXJ-j2Qwo7dt4ds-3" value="&lt;div&gt;Scan SO&lt;/div&gt;" style="rounded=1;whiteSpace=wrap;html=1;" parent="1" vertex="1">
          <mxGeometry x="250" y="230" width="110" height="45" as="geometry" />
        </mxCell>
        <mxCell id="_Gj4sTXJ-j2Qwo7dt4ds-18" value="Tidak" style="edgeStyle=orthogonalEdgeStyle;rounded=0;orthogonalLoop=1;jettySize=auto;html=1;" parent="1" source="_Gj4sTXJ-j2Qwo7dt4ds-4" target="_Gj4sTXJ-j2Qwo7dt4ds-12" edge="1">
          <mxGeometry relative="1" as="geometry" />
        </mxCell>
        <mxCell id="_Gj4sTXJ-j2Qwo7dt4ds-19" value="Ya" style="edgeStyle=orthogonalEdgeStyle;rounded=0;orthogonalLoop=1;jettySize=auto;html=1;" parent="1" source="_Gj4sTXJ-j2Qwo7dt4ds-4" target="_Gj4sTXJ-j2Qwo7dt4ds-6" edge="1">
          <mxGeometry relative="1" as="geometry" />
        </mxCell>
        <mxCell id="_Gj4sTXJ-j2Qwo7dt4ds-4" value="AWB Muncul?" style="rhombus;whiteSpace=wrap;html=1;" parent="1" vertex="1">
          <mxGeometry x="420" y="210" width="100" height="85" as="geometry" />
        </mxCell>
        <mxCell id="_Gj4sTXJ-j2Qwo7dt4ds-20" value="" style="edgeStyle=orthogonalEdgeStyle;rounded=0;orthogonalLoop=1;jettySize=auto;html=1;" parent="1" source="_Gj4sTXJ-j2Qwo7dt4ds-6" target="_Gj4sTXJ-j2Qwo7dt4ds-7" edge="1">
          <mxGeometry relative="1" as="geometry" />
        </mxCell>
        <mxCell id="_Gj4sTXJ-j2Qwo7dt4ds-6" value="&lt;b&gt;Wajib&lt;/b&gt; untuk mengisi berat dan dimensi sesuai barang actual" style="rounded=1;whiteSpace=wrap;html=1;" parent="1" vertex="1">
          <mxGeometry x="580" y="228.75" width="130" height="47.5" as="geometry" />
        </mxCell>
        <mxCell id="EqHWJAi_fha4OU4OgEdB-4" value="" style="edgeStyle=orthogonalEdgeStyle;rounded=0;orthogonalLoop=1;jettySize=auto;html=1;" edge="1" parent="1" source="_Gj4sTXJ-j2Qwo7dt4ds-7" target="EqHWJAi_fha4OU4OgEdB-3">
          <mxGeometry relative="1" as="geometry" />
        </mxCell>
        <mxCell id="_Gj4sTXJ-j2Qwo7dt4ds-7" value="SAVE" style="rounded=1;whiteSpace=wrap;html=1;" parent="1" vertex="1">
          <mxGeometry x="860" y="242.5" width="50" height="20" as="geometry" />
        </mxCell>
        <mxCell id="EqHWJAi_fha4OU4OgEdB-14" value="" style="edgeStyle=orthogonalEdgeStyle;rounded=0;orthogonalLoop=1;jettySize=auto;html=1;" edge="1" parent="1" source="_Gj4sTXJ-j2Qwo7dt4ds-8" target="4Tozd3ag8MRwf-s9bz92-11">
          <mxGeometry relative="1" as="geometry" />
        </mxCell>
        <mxCell id="EqHWJAi_fha4OU4OgEdB-16" value="Ya" style="edgeStyle=orthogonalEdgeStyle;rounded=0;orthogonalLoop=1;jettySize=auto;html=1;" edge="1" parent="1" source="_Gj4sTXJ-j2Qwo7dt4ds-8" target="4Tozd3ag8MRwf-s9bz92-8">
          <mxGeometry relative="1" as="geometry" />
        </mxCell>
        <mxCell id="_Gj4sTXJ-j2Qwo7dt4ds-8" value="&lt;div&gt;&lt;font style=&quot;font-size: 10px&quot;&gt;Muncul Notif &lt;br&gt;&lt;/font&gt;&lt;/div&gt;&lt;div&gt;&lt;font style=&quot;font-size: 10px&quot;&gt;&quot;Weight must be under 5 KG&quot;&lt;/font&gt;&lt;/div&gt;" style="rhombus;whiteSpace=wrap;html=1;" parent="1" vertex="1">
          <mxGeometry x="960" y="890" width="180" height="170" as="geometry" />
        </mxCell>
        <mxCell id="_Gj4sTXJ-j2Qwo7dt4ds-12" value="Buat tiket atau email agar diinvestigasi oleh Tim Tech" style="rounded=0;whiteSpace=wrap;html=1;" parent="1" vertex="1">
          <mxGeometry x="385" y="347.5" width="170" height="60" as="geometry" />
        </mxCell>
        <mxCell id="4Tozd3ag8MRwf-s9bz92-15" value="Ya" style="edgeStyle=orthogonalEdgeStyle;rounded=0;orthogonalLoop=1;jettySize=auto;html=1;" parent="1" source="4Tozd3ag8MRwf-s9bz92-1" target="4Tozd3ag8MRwf-s9bz92-10" edge="1">
          <mxGeometry relative="1" as="geometry" />
        </mxCell>
        <mxCell id="EqHWJAi_fha4OU4OgEdB-13" value="" style="edgeStyle=orthogonalEdgeStyle;rounded=0;orthogonalLoop=1;jettySize=auto;html=1;" edge="1" parent="1" source="4Tozd3ag8MRwf-s9bz92-1" target="_Gj4sTXJ-j2Qwo7dt4ds-8">
          <mxGeometry relative="1" as="geometry" />
        </mxCell>
        <mxCell id="4Tozd3ag8MRwf-s9bz92-1" value="&lt;font style=&quot;font-size: 10px&quot;&gt;Muncul Notif &quot;Request Pickup Samedays Services Open at 08.00 wib and Close at 14.00 wib &quot;&lt;/font&gt;" style="rhombus;whiteSpace=wrap;html=1;" parent="1" vertex="1">
          <mxGeometry x="960" y="650" width="180" height="170.62" as="geometry" />
        </mxCell>
        <mxCell id="EqHWJAi_fha4OU4OgEdB-10" value="Ya" style="edgeStyle=orthogonalEdgeStyle;rounded=0;orthogonalLoop=1;jettySize=auto;html=1;" edge="1" parent="1" source="4Tozd3ag8MRwf-s9bz92-2" target="EqHWJAi_fha4OU4OgEdB-9">
          <mxGeometry relative="1" as="geometry" />
        </mxCell>
        <mxCell id="EqHWJAi_fha4OU4OgEdB-12" value="" style="edgeStyle=orthogonalEdgeStyle;rounded=0;orthogonalLoop=1;jettySize=auto;html=1;" edge="1" parent="1" source="4Tozd3ag8MRwf-s9bz92-2" target="4Tozd3ag8MRwf-s9bz92-1">
          <mxGeometry relative="1" as="geometry" />
        </mxCell>
        <mxCell id="4Tozd3ag8MRwf-s9bz92-2" value="&lt;div&gt;&lt;font style=&quot;font-size: 10px&quot;&gt;Muncul Notif&lt;br&gt;&lt;/font&gt;&lt;/div&gt;&lt;div&gt;&lt;font style=&quot;font-size: 10px&quot;&gt;&quot;Samedays Services only &lt;br&gt;&lt;/font&gt;&lt;/div&gt;&lt;div&gt;&lt;font style=&quot;font-size: 10px&quot;&gt;cover same area &lt;br&gt;&lt;/font&gt;&lt;/div&gt;&lt;div&gt;&lt;font style=&quot;font-size: 10px&quot;&gt;for &lt;br&gt;&lt;/font&gt;&lt;/div&gt;&lt;div&gt;&lt;font style=&quot;font-size: 10px&quot;&gt;Destination&lt;/font&gt;&lt;/div&gt;&lt;div&gt;&lt;font style=&quot;font-size: 10px&quot;&gt; and Origin! &quot;&lt;/font&gt;&lt;/div&gt;" style="rhombus;whiteSpace=wrap;html=1;" parent="1" vertex="1">
          <mxGeometry x="960" y="407.50000000000006" width="180" height="170" as="geometry" />
        </mxCell>
        <mxCell id="4Tozd3ag8MRwf-s9bz92-8" value="Cek kembali field Weight pada orderan tersebut. Maksimal 5KG." style="rounded=0;whiteSpace=wrap;html=1;" parent="1" vertex="1">
          <mxGeometry x="1210" y="945" width="170" height="60" as="geometry" />
        </mxCell>
        <mxCell id="4Tozd3ag8MRwf-s9bz92-10" value="Cek kembali waktu ketika akan melakukan RTS. Maksimal pukul 13.30." style="rounded=0;whiteSpace=wrap;html=1;" parent="1" vertex="1">
          <mxGeometry x="1210" y="705.31" width="170" height="60" as="geometry" />
        </mxCell>
        <mxCell id="EqHWJAi_fha4OU4OgEdB-15" value="Ya" style="edgeStyle=orthogonalEdgeStyle;rounded=0;orthogonalLoop=1;jettySize=auto;html=1;" edge="1" parent="1" source="4Tozd3ag8MRwf-s9bz92-11" target="4Tozd3ag8MRwf-s9bz92-13">
          <mxGeometry relative="1" as="geometry" />
        </mxCell>
        <mxCell id="EqHWJAi_fha4OU4OgEdB-17" value="Tidak" style="edgeStyle=orthogonalEdgeStyle;rounded=0;orthogonalLoop=1;jettySize=auto;html=1;" edge="1" parent="1" source="4Tozd3ag8MRwf-s9bz92-11" target="4Tozd3ag8MRwf-s9bz92-18">
          <mxGeometry relative="1" as="geometry" />
        </mxCell>
        <mxCell id="4Tozd3ag8MRwf-s9bz92-11" value="&lt;div&gt;&lt;font style=&quot;font-size: 10px&quot;&gt;Muncul Notif &lt;br&gt;&lt;/font&gt;&lt;/div&gt;&lt;div&gt;&lt;font style=&quot;font-size: 10px&quot;&gt;&quot;Parcel dimension must be under 40x40x17 cm&quot;&lt;/font&gt;&lt;/div&gt;" style="rhombus;whiteSpace=wrap;html=1;" parent="1" vertex="1">
          <mxGeometry x="960" y="1140" width="180" height="170" as="geometry" />
        </mxCell>
        <mxCell id="4Tozd3ag8MRwf-s9bz92-13" value="Cek kembali field PLT pada orderan tersebut. Dengan ketentuan 40x40x17." style="rounded=0;whiteSpace=wrap;html=1;" parent="1" vertex="1">
          <mxGeometry x="1210" y="1195" width="170" height="60" as="geometry" />
        </mxCell>
        <mxCell id="EqHWJAi_fha4OU4OgEdB-18" value="" style="edgeStyle=orthogonalEdgeStyle;rounded=0;orthogonalLoop=1;jettySize=auto;html=1;" edge="1" parent="1" source="4Tozd3ag8MRwf-s9bz92-18" target="4Tozd3ag8MRwf-s9bz92-19">
          <mxGeometry relative="1" as="geometry" />
        </mxCell>
        <mxCell id="4Tozd3ag8MRwf-s9bz92-18" value="Tampil New Tab Shipping Label" style="shape=parallelogram;perimeter=parallelogramPerimeter;whiteSpace=wrap;html=1;fixedSize=1;" parent="1" vertex="1">
          <mxGeometry x="740" y="1195" width="120" height="60" as="geometry" />
        </mxCell>
        <mxCell id="4Tozd3ag8MRwf-s9bz92-19" value="END" style="ellipse;whiteSpace=wrap;html=1;aspect=fixed;" parent="1" vertex="1">
          <mxGeometry x="620" y="1200" width="50" height="50" as="geometry" />
        </mxCell>
        <mxCell id="EqHWJAi_fha4OU4OgEdB-11" value="" style="edgeStyle=orthogonalEdgeStyle;rounded=0;orthogonalLoop=1;jettySize=auto;html=1;" edge="1" parent="1" source="EqHWJAi_fha4OU4OgEdB-3" target="4Tozd3ag8MRwf-s9bz92-2">
          <mxGeometry relative="1" as="geometry" />
        </mxCell>
        <mxCell id="EqHWJAi_fha4OU4OgEdB-19" value="Ya" style="edgeStyle=orthogonalEdgeStyle;rounded=0;orthogonalLoop=1;jettySize=auto;html=1;" edge="1" parent="1" source="EqHWJAi_fha4OU4OgEdB-3" target="EqHWJAi_fha4OU4OgEdB-5">
          <mxGeometry relative="1" as="geometry" />
        </mxCell>
        <mxCell id="EqHWJAi_fha4OU4OgEdB-3" value="Muncul Notif&lt;br&gt;&lt;div&gt;&quot;Parcel dimension&lt;/div&gt;&lt;div&gt; must be filled&quot;&lt;/div&gt;" style="rhombus;whiteSpace=wrap;html=1;" vertex="1" parent="1">
          <mxGeometry x="960" y="167.5" width="180" height="170" as="geometry" />
        </mxCell>
        <mxCell id="EqHWJAi_fha4OU4OgEdB-5" value="Cek kembali field PLT. Lalu input sesuai dengan paket aktual." style="rounded=0;whiteSpace=wrap;html=1;" vertex="1" parent="1">
          <mxGeometry x="1210" y="222.5" width="170" height="60" as="geometry" />
        </mxCell>
        <mxCell id="EqHWJAi_fha4OU4OgEdB-9" value="Cek kembali area asal dan tujuan dari orderan tersebut." style="rounded=0;whiteSpace=wrap;html=1;" vertex="1" parent="1">
          <mxGeometry x="1210" y="462.5" width="170" height="60" as="geometry" />
        </mxCell>
      </root>
    </mxGraphModel>
  </diagram>
</mxfile>
